<svg xmlns="http://www.w3.org/2000/svg" viewBox="0 0 512 512" style="enable-background:new 0 0 512 512" xml:space="preserve"><path style="fill:#ffc36e" d="M148.472 375.48c-13.484 0-22.46-11.081-20.049-24.749L161.83 161.27c2.4-13.612 15.35-24.749 28.778-24.749h292.966c13.427 0 22.451 11.137 20.049 24.749l-33.558 190.315c-2.327 13.197-14.767 23.896-27.786 23.896H148.472z"/><path style="fill:#ffb464" d="M499.339 143.564c-.009.003-.016.009-.025.012L361.1 255.435h-89.974l-98.675-111.662-.01.009-.137-.155-.012-.012c-5.322 4.5-9.249 10.758-10.465 17.654l-.88 4.991 92.394 104.54-120.657 97.627c3.633 4.351 9.153 7.054 15.786 7.054h293.808c6.404 0 12.656-2.608 17.646-6.811l-83.948-95.044L501.76 171.825l1.861-10.555c1.222-6.925-.516-13.203-4.282-17.706z"/><path style="fill:#ffd782" d="M483.572 136.52H190.606c-6.623 0-13.118 2.728-18.301 7.107L289.079 275.75c10.979 12.43 31.557 12.43 46.919 0l163.316-132.176c-3.638-4.345-9.146-7.054-15.742-7.054z"/><path d="M505.448 138.386c-5.344-6.369-13.117-9.877-21.887-9.877H190.596c-17.459 0-33.565 13.779-36.667 31.369L120.522 349.34c-1.584 8.987.612 17.842 6.026 24.294 5.334 6.356 13.116 9.858 21.913 9.858h293.808c16.987 0 32.657-13.404 35.675-30.516l33.558-190.316c1.578-8.96-.628-17.808-6.054-24.274zm-21.886 6.145c.592 0 1.166.044 1.732.109L330.949 269.523c-12 9.709-27.758 10.115-35.875.924L184.75 145.543c1.903-.644 3.872-1.013 5.846-1.013h292.966zM136.3 352.122l33.407-189.461c.432-2.45 1.352-4.806 2.637-6.962l87.738 99.335-124.045 100.367a17.126 17.126 0 0 1 .263-3.279zm12.16 15.348c-.593 0-1.169-.043-1.735-.107l123.973-100.309 12.366 14.001c7.057 7.989 17.15 12.003 27.831 12.003 10.226 0 20.99-3.682 30.131-11.078l18.446-14.926 87.967 99.594c-1.689.531-3.429.822-5.171.822H148.46zm347.262-207.592-33.558 190.315c-.389 2.208-1.205 4.329-2.326 6.29l-87.899-99.517 124.04-100.363a16.73 16.73 0 0 1-.257 3.275zM110.549 248.137H8.011a8.011 8.011 0 0 0 0 16.022h102.538a8.011 8.011 0 0 0 0-16.022zM127.104 213.423a8.011 8.011 0 0 0-8.011-8.011H42.19a8.011 8.011 0 0 0 0 16.022h76.904a8.01 8.01 0 0 0 8.01-8.011zM102.004 290.861H25.1a8.011 8.011 0 0 0 0 16.022h76.903a8.011 8.011 0 0 0 .001-16.022z"/></svg>