<svg xmlns="http://www.w3.org/2000/svg" viewBox="0 0 24 24" fill="white" width="24px" height="24px">
    <path d="M0 0h24v24H0z" fill="none"/>
    <path d="M12 0C5.373 0 0 5.373 0 12c0 5.303 3.438 9.8 8.205 11.387.6.113.793-.26.793-.577v-2.234c-3.338.725-4.033-1.612-4.033-1.612-.546-1.387-1.333-1.757-1.333-1.757-1.089-.745.083-.729.083-.729 1.205.084 1.84 1.24 1.84 1.24 1.07 1.834 2.809 1.304 3.495.997.107-.774.418-1.305.76-1.605-2.665-.303-5.466-1.333-5.466-5.93 0-1.31.467-2.381 1.235-3.221-.123-.304-.535-1.523.118-3.176 0 0 1.008-.322 3.3 1.23.96-.267 1.987-.4 3.008-.404 1.02.004 2.048.137 3.008.404 2.29-1.552 3.297-1.23 3.297-1.23.654 1.653.242 2.872.12 3.176.77.84 1.233 1.911 1.233 3.221 0 4.609-2.804 5.625-5.476 5.922.43.37.814 1.103.814 2.222v3.293c0 .32.192.694.8.576C20.565 21.796 24 17.303 24 12 24 5.373 18.627 0 12 0z"/>
</svg>
